<svg width="16" height="16" viewBox="0 0 16 16" fill="none" xmlns="http://www.w3.org/2000/svg" class="fengwei">
<path fill-rule="evenodd" clip-rule="evenodd" d="M8.00008 0.666626C12.0502 0.666626 15.3334 3.94987 15.3334 7.99996C15.3334 12.05 12.0502 15.3333 8.00008 15.3333C3.94999 15.3333 0.666748 12.05 0.666748 7.99996C0.666748 3.94987 3.94999 0.666626 8.00008 0.666626ZM8.33333 10.6667C8.51743 10.6667 8.66667 10.8159 8.66667 11V11.6667C8.66667 11.8508 8.51743 12 8.33333 12H7.66667C7.48257 12 7.33333 11.8508 7.33333 11.6667V11C7.33333 10.8159 7.48257 10.6667 7.66667 10.6667H8.33333ZM7.90531 4C8.69777 4 9.3561 4.19191 9.88032 4.57573C10.4045 4.95955 10.6666 5.52817 10.6666 6.28159C10.6666 6.7436 10.5527 7.13275 10.3248 7.44904C10.1915 7.64095 9.93555 7.88617 9.55685 8.1847L9.18341 8.47789C8.98004 8.63782 8.84504 8.8244 8.77842 9.03763C8.76029 9.09582 8.74435 9.204 8.73061 9.36216C8.71566 9.53444 8.57145 9.66667 8.39853 9.66667H7.65226C7.46817 9.66667 7.31893 9.51743 7.31893 9.33333L7.31928 9.31796L7.32034 9.30262C7.36327 8.83869 7.40923 8.54512 7.45823 8.42192C7.5494 8.19269 7.78433 7.92882 8.16303 7.63029L8.54699 7.32643C8.67322 7.23048 9.32369 6.77243 9.32369 6.36689C9.32369 5.96134 9.25304 5.81218 9.04943 5.5896C8.84581 5.36703 8.38745 5.29539 7.97368 5.29539C7.56693 5.29539 7.21935 5.40341 7.04928 5.67706C6.97052 5.8038 6.90611 5.93901 6.85966 6.07696C6.84138 6.13123 6.82519 6.19951 6.81108 6.2818C6.78364 6.44182 6.6449 6.5588 6.48254 6.5588H5.69776C5.51366 6.5588 5.36442 6.40956 5.36442 6.22546L5.36495 6.2066L5.36655 6.18781C5.37503 6.11329 5.3837 6.05131 5.39258 6.00185C5.52254 5.27812 5.85168 4.74589 6.37999 4.40514C6.79376 4.13505 7.30219 4 7.90531 4Z" fill="#86909C"></path>
</svg>