<svg width="16" height="16" viewBox="0 0 16 16" fill="none" xmlns="http://www.w3.org/2000/svg" class="fengwei">
<path fill-rule="evenodd" clip-rule="evenodd" d="M4.07409 14.913C3.78885 15.0502 3.44641 14.9301 3.30922 14.6449C3.26321 14.5492 3.24467 14.4427 3.25568 14.3371L3.67332 10.3317C3.69013 10.1705 3.63789 10.0097 3.52953 9.88917L0.813641 6.86787C0.602045 6.63248 0.621335 6.27013 0.856725 6.05854C0.931303 5.9915 1.02217 5.9452 1.12024 5.92427L5.09331 5.07635C5.25183 5.04251 5.38861 4.94314 5.46977 4.80283L7.50394 1.28624C7.66242 1.01226 8.013 0.918629 8.28698 1.07711C8.37379 1.12732 8.4459 1.19943 8.49611 1.28624L10.5303 4.80283C10.6114 4.94314 10.7482 5.04251 10.9067 5.07635L14.8798 5.92427C15.1894 5.99033 15.3867 6.29482 15.3207 6.60436C15.2997 6.70243 15.2534 6.7933 15.1864 6.86787L12.4705 9.88917C12.3622 10.0097 12.3099 10.1705 12.3267 10.3317L12.7444 14.3371C12.7772 14.6519 12.5486 14.9337 12.2338 14.9665C12.1282 14.9775 12.0216 14.959 11.926 14.913L8.24843 13.1442C8.09143 13.0687 7.90862 13.0687 7.75162 13.1442L4.07409 14.913Z" fill="#86909C"></path>
</svg> 