<svg width="16" height="16" viewBox="0 0 16 16" fill="none" xmlns="http://www.w3.org/2000/svg" class="fengwei">
<path fill-rule="evenodd" clip-rule="evenodd" d="M14.9187 6.53385C15.0999 6.76744 14.9466 7.2 14.651 7.2H6.32905V4H5.02905V7.2H3.6C2.16406 7.2 1 6.03594 1 4.6C1 3.16406 2.16406 2 3.6 2H14.651C14.9466 2 15.0999 2.43257 14.9188 2.66616C14.5064 3.19779 14.2602 3.86959 14.2602 4.60001C14.2602 5.33043 14.5064 6.00222 14.9187 6.53385Z" fill="#86909C"></path>
<path fill-rule="evenodd" clip-rule="evenodd" d="M1.34902 14C1.0534 14 0.900077 13.5675 1.08126 13.3339C1.49363 12.8023 1.7398 12.1305 1.7398 11.4001C1.7398 10.6696 1.49362 9.99784 1.08125 9.46621C0.900064 9.23262 1.05339 8.80005 1.34901 8.80005H12.4C13.8359 8.80005 15 9.96411 15 11.4C15 12.836 13.8359 14 12.4 14H1.34902Z" fill="#86909C"></path>
</svg> 