<svg width="16" height="16" viewBox="0 0 16 16" fill="none" xmlns="http://www.w3.org/2000/svg" class="fengwei">
    <path fill-rule="evenodd" clip-rule="evenodd" d="M2 1.66663C2 1.11434 2.44772 0.666626 3 0.666626H11L14 3.80948V14.3333C14 14.8856 13.5523 15.3333 13 15.3333H3C2.44772 15.3333 2 14.8856 2 14.3333V1.66663ZM4.66675 9.66667C4.66675 9.29848 4.96522 9 5.33341 9H8.00008C8.36827 9 8.66675 9.29848 8.66675 9.66667C8.66675 10.0349 8.36827 10.3333 8.00008 10.3333H5.33341C4.96522 10.3333 4.66675 10.0349 4.66675 9.66667ZM5.33341 6.33337C4.96522 6.33337 4.66675 6.63185 4.66675 7.00004C4.66675 7.36823 4.96522 7.66671 5.33341 7.66671H10.6667C11.0349 7.66671 11.3334 7.36823 11.3334 7.00004C11.3334 6.63185 11.0349 6.33337 10.6667 6.33337H5.33341Z" fill="#86909C"></path>
    <path fill-rule="evenodd" clip-rule="evenodd" d="M10.3999 1.5L13.3999 4.5H10.3999V1.5Z" fill="white"></path>
</svg> 