<svg width="16" height="16" viewBox="0 0 16 16" fill="none" xmlns="http://www.w3.org/2000/svg" class="fengwei">
<path fill-rule="evenodd" clip-rule="evenodd" d="M10.6667 2.55473C13.0212 3.58347 14.6667 5.93291 14.6667 8.66667C14.6667 12.3486 11.6819 15.3333 8 15.3333C4.3181 15.3333 1.33333 12.3486 1.33333 8.66667C1.33333 5.93291 2.97879 3.58347 5.33333 2.55473V4.04684C3.7392 4.969 2.66667 6.69259 2.66667 8.66667C2.66667 11.6122 5.05448 14 8 14C10.9455 14 13.3333 11.6122 13.3333 8.66667C13.3333 6.69259 12.2608 4.969 10.6667 4.04684V2.55473ZM7.33333 8.66667V1.33333C7.33333 1.14924 7.48257 1 7.66667 1H8.33333C8.51743 1 8.66667 1.14924 8.66667 1.33333V8.66667C8.66667 8.85076 8.51743 9 8.33333 9H7.66667C7.48257 9 7.33333 8.85076 7.33333 8.66667Z" fill="#86909C"></path>
</svg>