<svg width="16" height="12" viewBox="0 0 16 12" fill="none" xmlns="http://www.w3.org/2000/svg" class="record-icon">
<path fill-rule="evenodd" clip-rule="evenodd" d="M7.98915 0.333252C10.6699 0.333252 12.9774 1.97191 14.9115 5.24923L15.0297 5.45253L15.1539 5.67397C15.2665 5.87719 15.2652 6.12436 15.1504 6.32635L15.0171 6.55763C13.0126 9.9636 10.6699 11.6666 7.98915 11.6666C5.36016 11.6666 3.06262 10.0287 1.09651 6.75306L1.00164 6.59328C0.96912 6.53793 0.929777 6.46959 0.883607 6.38826L0.847695 6.32483C0.734104 6.12363 0.732791 5.87795 0.844226 5.67555L0.956615 5.47341C0.978611 5.43434 0.998619 5.39918 1.01664 5.36793C2.95202 2.01148 5.27619 0.333252 7.98915 0.333252ZM8 4C9.10457 4 10 4.89543 10 6C10 7.10457 9.10457 8 8 8C6.89543 8 6 7.10457 6 6C6 4.89543 6.89543 4 8 4Z" fill="#86909C"></path>
</svg> 