<svg width="16" height="16" viewBox="0 0 16 16" fill="none" xmlns="http://www.w3.org/2000/svg" class="fengwei">
<path fill-rule="evenodd" clip-rule="evenodd" d="M13.9997 1.66602C14.1838 1.66602 14.333 1.81525 14.333 1.99935C14.333 2.06208 14.3153 2.12355 14.2819 2.17667L11.8805 5.99935L14.2819 9.82203C14.3799 9.97792 14.3329 10.1837 14.177 10.2816C14.1239 10.315 14.0624 10.3327 13.9997 10.3327L3.361 10.333L3.36115 13.6521C3.36115 14.028 3.05644 14.3327 2.68057 14.3327C2.3047 14.3327 2 14.028 2 13.6521V2.33268C2 1.96449 2.29848 1.66602 2.66667 1.66602H13.9997ZM7.91667 4.33268C8.14679 4.33268 8.33333 4.48192 8.33333 4.66602V5.33268C8.33333 5.51678 8.14679 5.66602 7.91667 5.66602H5.41667C5.18655 5.66602 5 5.51678 5 5.33268V4.66602C5 4.48192 5.18655 4.33268 5.41667 4.33268H7.91667Z" fill="#8A919F"></path>
</svg> 