<svg width="16" height="17" viewBox="0 0 16 17" fill="none" xmlns="http://www.w3.org/2000/svg" class="fengwei">
<path fill-rule="evenodd" clip-rule="evenodd" d="M11.9364 3.28516C11.7004 3.28516 11.5047 3.45628 11.3912 3.66319C11.154 4.09563 10.6945 4.38879 10.1665 4.38879C9.63845 4.38879 9.17891 4.09563 8.94174 3.66319C8.82825 3.45628 8.6325 3.28516 8.39651 3.28516H2C1.44772 3.28516 1 3.73287 1 4.28515L1 13.1034C1 13.6557 1.44771 14.1034 2 14.1034L8.39556 14.1034C8.63181 14.1034 8.82769 13.9319 8.94111 13.7247C9.1781 13.2916 9.63798 12.9979 10.1665 12.9979C10.6949 12.9979 11.1548 13.2916 11.3918 13.7247C11.5052 13.9319 11.7011 14.1034 11.9373 14.1034H14.0001C14.5523 14.1034 15.0001 13.6557 15.0001 13.1034V4.28516C15.0001 3.73287 14.5523 3.28516 14.0001 3.28516H11.9364Z" fill="#8A919F"></path>
<path fill-rule="evenodd" clip-rule="evenodd" d="M10.5344 5.82422C10.6448 5.82422 10.7344 5.91376 10.7344 6.02422L10.7344 6.8372C10.7344 6.94765 10.6448 7.0372 10.5344 7.0372L9.73438 7.0372C9.62392 7.0372 9.53438 6.94765 9.53437 6.8372L9.53437 6.02422C9.53437 5.91376 9.62392 5.82422 9.73437 5.82422L10.5344 5.82422ZM10.5344 8.0325C10.6448 8.0325 10.7344 8.12204 10.7344 8.2325L10.7344 9.15063C10.7344 9.26109 10.6448 9.35063 10.5344 9.35063L9.73438 9.35063C9.62392 9.35063 9.53438 9.26109 9.53438 9.15063L9.53438 8.2325C9.53438 8.12204 9.62392 8.0325 9.73437 8.0325L10.5344 8.0325ZM10.5344 10.3459C10.6448 10.3459 10.7344 10.4355 10.7344 10.5459L10.7344 11.3589C10.7344 11.4694 10.6448 11.5589 10.5344 11.5589L9.73438 11.5589C9.62392 11.5589 9.53438 11.4694 9.53438 11.3589L9.53438 10.5459C9.53438 10.4355 9.62392 10.3459 9.73438 10.3459L10.5344 10.3459Z" fill="white"></path>
</svg> 