<svg width="16" height="16" viewBox="0 0 16 16" fill="none" xmlns="http://www.w3.org/2000/svg" class="fengwei">
<path fill-rule="evenodd" clip-rule="evenodd" d="M7.99989 0.727295C8.53915 0.727295 9.07116 0.786648 9.58901 0.903237L9.88786 0.970519L10.8198 3.09506L13.1143 2.84422L13.3217 3.07014C14.0479 3.86109 14.5927 4.80447 14.9121 5.83475L15.0021 6.12519L14.8231 6.371L13.6368 8.00002L15.0021 9.87485L14.9121 10.1653C14.5927 11.1956 14.0479 12.139 13.3217 12.9299L13.1143 13.1558L10.8198 12.905L9.88786 15.0295L9.58901 15.0968C9.07116 15.2134 8.53915 15.2727 7.99989 15.2727C7.46051 15.2727 6.92838 15.2134 6.41041 15.0967L6.11154 15.0294L5.98852 14.7489L5.17999 12.905L2.88551 13.1558L2.67809 12.9299C1.95184 12.1389 1.40698 11.1954 1.08759 10.1649L0.997559 9.87446L1.17661 9.62865L2.36299 8.00002L0.997559 6.12559L1.08759 5.83512C1.40698 4.80469 1.95184 3.86118 2.67809 3.07014L2.88551 2.84422L5.17999 3.09505L6.11154 0.970623L6.41041 0.903319C6.92838 0.786676 7.46051 0.727295 7.99989 0.727295ZM7.99996 4.96969C9.66782 4.96969 11.0187 6.32704 11.0187 7.99999C11.0187 9.67293 9.66782 11.0303 7.99996 11.0303C6.3321 11.0303 4.9812 9.67293 4.9812 7.99999C4.9812 6.32704 6.3321 4.96969 7.99996 4.96969ZM6.19336 7.99999C6.19336 6.99518 7.00287 6.1818 8 6.1818C8.99713 6.1818 9.80663 6.99518 9.80663 7.99999C9.80663 9.00479 8.99713 9.81817 8 9.81817C7.00287 9.81817 6.19336 9.00479 6.19336 7.99999Z" fill="#86909C"></path>
</svg>