<svg width="16" height="16" viewBox="0 0 16 16" fill="none" xmlns="http://www.w3.org/2000/svg" class="fengwei">
<path fill-rule="evenodd" clip-rule="evenodd" d="M14 1.33329C14 0.965103 13.7015 0.666626 13.3333 0.666626H2.66667C2.29848 0.666626 2 0.965103 2 1.33329V14.876C2 14.9877 2.02807 15.0976 2.08163 15.1957C2.25817 15.5188 2.66321 15.6376 2.98632 15.4611L7.68035 12.8963C7.87955 12.7875 8.12045 12.7875 8.31965 12.8963L13.0137 15.4611C13.1117 15.5146 13.2216 15.5428 13.3333 15.5428C13.7015 15.5428 14 15.2442 14 14.876V1.33329ZM11.0641 5.2215L10.5927 4.7501C10.4626 4.61992 10.2515 4.61992 10.1213 4.7501L7.5286 7.34282L6.35009 6.16431C6.21992 6.03414 6.00886 6.03414 5.87869 6.16431L5.40728 6.63572C5.27711 6.76589 5.27711 6.97694 5.40728 7.10712L7.2929 8.99274C7.42308 9.12291 7.63413 9.12291 7.76431 8.99274L11.0641 5.69291C11.1943 5.56273 11.1943 5.35168 11.0641 5.2215Z" fill="#86909C"></path>
</svg> 