<svg width="16" height="16" viewBox="0 0 16 16" fill="none" xmlns="http://www.w3.org/2000/svg" class="fengwei">
<path fill-rule="evenodd" clip-rule="evenodd" d="M3.15048 2.00311L5.68881 2.00311C5.76363 2.00311 5.83356 2.04029 5.8754 2.10233L7.84504 5.02287C7.93442 5.1554 8.1296 5.15511 8.21853 5.02232L10.1757 2.09977C10.2175 2.03742 10.2876 2 10.3626 2L12.8244 2C13.0085 2 13.1147 2.20909 13.0061 2.35775L8.20305 8.93275C8.11356 9.05525 7.93095 9.05586 7.8406 8.93396L2.96977 2.36205C2.85972 2.21357 2.96567 2.0031 3.15048 2.00311ZM9.42298 13.9997H6.7208C6.64853 13.9997 6.58074 13.965 6.53859 13.9064L0.721927 5.82027C0.675037 5.75509 0.666549 5.66975 0.699659 5.59642L1.78223 3.19862C1.85345 3.04088 2.06837 3.01866 2.16963 3.15856L7.83767 10.9894C7.92809 11.1143 8.11482 11.1129 8.20386 10.9865L13.7446 3.12386C13.8436 2.98331 14.057 3.0007 14.1313 3.15537L15.3031 5.59615C15.3383 5.6695 15.3311 5.75626 15.2843 5.82298L9.60754 13.9037C9.56528 13.9638 9.49639 13.9997 9.42298 13.9997Z" fill="#8A919F"></path>
</svg> 