<svg width="16" height="16" viewBox="0 0 16 16" fill="none" xmlns="http://www.w3.org/2000/svg" class="signin-icon">
<path fill-rule="evenodd" clip-rule="evenodd" d="M4.90594 1C5.05452 1 5.1084 1.02095 5.16273 1.05C5.21705 1.07905 5.25968 1.11568 5.28873 1.17C5.31778 1.22432 5.33325 1.28141 5.33325 1.43V3.33333H10.6666V1.43C10.6666 1.28141 10.6821 1.22432 10.7111 1.17C10.7402 1.11568 10.7828 1.07905 10.8371 1.05C10.8914 1.02095 10.9453 1 11.0939 1H11.5726C11.7212 1 11.7751 1.02095 11.8294 1.05C11.8837 1.07905 11.9263 1.11568 11.9554 1.17C11.9844 1.22432 11.9999 1.28141 11.9999 1.43V3.33333H13.9999C14.3681 3.33333 14.6666 3.63181 14.6666 3.99999V14.3333C14.6666 14.7015 14.3681 15 13.9999 15H1.99992C1.63173 15 1.33325 14.7015 1.33325 14.3333V3.99999C1.33325 3.63181 1.63173 3.33333 1.99992 3.33333H3.99992V1.43C3.99992 1.28141 4.01539 1.22432 4.04444 1.17C4.07349 1.11568 4.11612 1.07905 4.17044 1.05C4.22477 1.02095 4.27865 1 4.42723 1H4.90594ZM7.02131 10.244L10.944 6.58944C11.0684 6.47361 11.2577 6.47106 11.3847 6.57729L11.4151 6.60612L11.8696 7.0939C11.9854 7.21824 11.988 7.40752 11.8817 7.53461L11.8529 7.56501L7.22135 11.8799C7.09979 11.9931 6.91551 11.9984 6.78815 11.8981L6.75757 11.8708L4.10049 9.19425C3.98077 9.07365 3.97222 8.88454 4.07437 8.75415L4.10222 8.72285L4.57535 8.25317C4.69595 8.13345 4.88506 8.1249 5.01545 8.22706L5.04675 8.2549L7.02131 10.244Z" fill="#86909C"></path>
</svg> 