<svg width="16" height="16" viewBox="0 0 16 16" fill="none" xmlns="http://www.w3.org/2000/svg" class="fengwei">
    <path fill-rule="evenodd" clip-rule="evenodd" d="M14.3335 13.6696C14.5176 13.6696 14.6668 13.8188 14.6668 14.0029V14.6696C14.6668 14.8537 14.5176 15.0029 14.3335 15.0029H1.66683C1.48273 15.0029 1.3335 14.8537 1.3335 14.6696V14.0029C1.3335 13.8188 1.48273 13.6696 1.66683 13.6696H14.3335Z" fill="#86909C"></path>
    <path fill-rule="evenodd" clip-rule="evenodd" d="M9.8175 1.52987L9.77386 1.48969C9.51193 1.26901 9.1201 1.28199 8.87345 1.52864L8.40329 1.9988L8.40492 2.00037L7.27453 3.13954L10.5036 6.3751L12.1057 4.77295C12.3656 4.51309 12.3661 4.09193 12.107 3.83138L9.8175 1.52987ZM9.50415 7.3746L6.27569 4.14613L1.33325 9.12694V11.6696L1.33508 11.7194C1.36053 12.0643 1.64846 12.3363 1.99992 12.3363H4.5426L9.50415 7.3746Z" fill="#86909C"></path>
</svg> 